<svg width="222" height="47" viewBox="0 0 222 47" fill="none" xmlns="http://www.w3.org/2000/svg">
<path d="M57.9261 19.4489L58.2388 19.3586C59.7549 19.3586 61.0625 19.5392 62.1616 19.9004H63.0144L63.0712 20.0508L63.0428 21.7965C63.0238 21.9169 62.9575 21.9771 62.8438 21.9771L62.5027 21.6159L61.7352 21.4353H61.4794L61.3088 21.4955V21.6159C61.5741 21.7363 61.7447 21.7965 61.8205 21.7965V21.8567C61.8205 21.9369 61.6025 21.9971 61.1667 22.0373L60.9961 27.9062V28.5383L60.9677 36.6044V37.0859C60.9677 37.2665 61.4983 37.3568 62.5596 37.3568H68.0173L68.9269 37.417C69.0406 37.417 69.1354 36.8652 69.2112 35.7617C69.268 35.4807 69.3533 35.3403 69.467 35.3403C70.5851 35.3804 71.1441 35.4908 71.1441 35.6714C71.0683 35.8519 70.9546 35.9422 70.803 35.9422V36.0325C70.9925 36.2332 71.0873 36.4037 71.0873 36.5442C71.0873 37.0057 71.021 37.6177 70.8883 38.3801V38.8316L70.9167 38.9821C70.803 39.2028 70.7462 39.4034 70.7462 39.584C70.7083 39.584 70.6325 39.7144 70.5188 39.9753C70.1019 40.1358 69.6944 40.2161 69.2965 40.2161H69.1828L66.7381 39.9753H66.596L60.9961 40.2161L57.1018 39.8248C56.9502 39.7044 56.8744 39.574 56.8744 39.4335C57.026 38.2497 57.2629 37.6578 57.585 37.6578C57.6798 37.5575 58.0493 37.4772 58.6936 37.417C58.94 36.7749 58.9495 33.8655 58.7221 28.6888C58.8358 27.2842 58.9305 25.1975 59.0063 22.4285V22.1276C59.0063 21.8266 58.8073 21.6761 58.4094 21.6761L58.1535 21.6159V21.5256C58.4947 21.345 58.76 21.2547 58.9495 21.2547V21.1343L58.2957 21.0441H57.8977V21.1644C57.9735 21.1644 58.0114 21.1945 58.0114 21.2547C57.9546 21.3551 57.8693 21.4052 57.7556 21.4052H57.6419C57.4524 21.325 57.3576 21.0942 57.3576 20.713V20.6227C57.3576 20.1612 57.4808 19.8703 57.7272 19.7499C57.784 19.7499 57.8503 19.6495 57.9261 19.4489ZM58.1535 20.3819L58.0683 20.4421V20.5023H58.2104L58.2957 20.412V20.3819H58.1535ZM61.9342 20.412L61.8205 20.5023V20.5625L62.0195 20.6227V20.6528L61.9342 20.713L61.3657 20.6829L61.3372 20.713V20.8635L61.4225 20.9538H61.991C62.2942 20.9538 62.4458 20.8434 62.4458 20.6227C62.3132 20.4822 62.1711 20.412 62.0195 20.412H61.9342ZM59.8307 20.6227C59.9065 20.7631 60.1149 20.8334 60.456 20.8334H60.655L60.7972 20.6829C60.6266 20.5625 60.456 20.5023 60.2855 20.5023H60.0581C59.9065 20.5023 59.8307 20.5424 59.8307 20.6227ZM60.4845 21.1644L60.3423 21.2246V21.2547L60.3992 21.3751H60.5982L60.7687 21.3149V21.2246L60.5982 21.1644H60.4845ZM60.3708 21.7965L60.3423 21.8567V22.278C60.3613 22.5389 60.4087 22.6693 60.4845 22.6693L60.655 22.5489V22.3382C60.6361 21.9771 60.5413 21.7965 60.3708 21.7965ZM60.1718 27.7558H60.0865C59.9349 28.5985 59.9254 29.1503 60.0581 29.4111C60.1528 29.5917 60.2192 29.5315 60.2571 29.2305L60.2855 28.2373C60.2665 27.9163 60.2286 27.7558 60.1718 27.7558ZM70.6041 36.484H70.5472C70.3956 36.9054 70.3198 37.1461 70.3198 37.2063L70.0924 38.4704V38.5908L70.1777 38.6811H70.2629C70.5093 38.5607 70.6514 37.9889 70.6893 36.9655C70.6704 36.6445 70.642 36.484 70.6041 36.484ZM60.0581 36.6044H59.9159V36.6947C59.8212 36.9956 59.7738 37.2164 59.7738 37.3568C59.7738 37.6377 59.8401 37.8083 59.9728 37.8685H60.0865C60.1623 37.8685 60.2002 37.5775 60.2002 36.9956V36.8753C60.2002 36.7348 60.1528 36.6445 60.0581 36.6044ZM67.8752 37.6277H67.5909V37.718C67.5909 37.7782 67.7141 37.8183 67.9605 37.8384C67.9605 37.9989 68.131 38.0892 68.4721 38.1092L69.0122 38.0491V37.9287C68.6522 37.9287 68.2731 37.8283 67.8752 37.6277ZM67.0793 37.9287H66.3402V37.9588C66.3591 38.019 66.4539 38.0491 66.6244 38.0491H67.2498V37.9588L67.0793 37.9287ZM57.4145 38.3801C57.5661 38.3801 57.6419 38.3099 57.6419 38.1694V38.1092H57.585C57.4713 38.1293 57.4145 38.2196 57.4145 38.3801ZM60.2286 38.3199H60.0865V38.4704C60.4276 38.5306 62.1332 38.641 65.2032 38.8015L65.26 38.7714V38.7112L60.2286 38.3199ZM57.4713 38.5908L57.3008 38.6209V38.7112L57.3861 38.8015H57.4713L57.5566 38.7112V38.6811L57.4713 38.5908ZM66.8519 38.8617L66.795 38.9219V38.9821L67.0508 39.0423H67.4488V38.9821C67.4488 38.9018 67.3825 38.8617 67.2498 38.8617H66.8519ZM68.0742 39.2529V39.283H68.1594C68.3489 39.283 68.5384 39.2028 68.728 39.0423C68.709 38.962 68.6332 38.9219 68.5005 38.9219C68.4247 38.9219 68.2826 39.0322 68.0742 39.2529ZM68.8985 39.3733L68.4721 39.4034V39.4335C68.6237 39.594 68.8132 39.6743 69.0406 39.6743H69.1259C69.2207 39.6743 69.3059 39.6342 69.3817 39.5539C69.4765 39.6342 69.5807 39.6743 69.6944 39.6743H69.9218C70.1303 39.6743 70.244 39.6342 70.2629 39.5539V39.5238C70.2629 39.4235 69.9692 39.3733 69.3817 39.3733H68.8985ZM61.1383 39.6442L60.5129 39.6743V39.7345C60.5129 39.875 60.9582 39.9652 61.8489 40.0054C62.4364 40.0054 62.9196 39.9452 63.2986 39.8248V39.7345C62.5027 39.6743 61.7921 39.6442 61.1667 39.6442H61.1383ZM59.9444 39.7345H59.8875V39.8248H59.9444V39.7345ZM64.3788 39.7345L64.2082 39.7947V39.9151H64.3788L64.7199 39.8248V39.7345H64.3788Z" fill="#fefefe"/>
<path d="M74.0436 25.1373L75.9765 25.8295C75.9955 26.1305 76.1092 26.4515 76.3176 26.7926L76.3745 27.1237C76.2039 28.4079 76.1566 31.0765 76.2324 35.1296C76.2324 35.7115 76.4598 36.0927 76.9146 36.2733L77.1136 36.7549C77.1136 36.8753 77.7389 36.9856 78.9897 37.0859H79.1034C79.5013 37.0859 79.9941 36.6345 80.5815 35.7316C81.0363 35.25 81.3395 34.8688 81.4911 34.5879H81.6333V34.4073L81.5764 34.2568C81.6901 34.0762 81.7754 33.8053 81.8323 33.4442H81.8607V33.1733L82.3723 27.4548V26.913L82.3155 26.6121V26.582C82.524 26.4214 82.6282 26.1706 82.6282 25.8295C82.6282 25.6088 82.6945 25.4884 82.8272 25.4684L83.481 25.8295H84.1063C84.8643 25.8295 85.4044 26.0001 85.7266 26.3412V26.4616C85.5181 26.4616 85.4139 26.5017 85.4139 26.582L85.6982 27.2742H85.7834C85.8213 26.9732 85.8593 26.8227 85.8972 26.8227C85.973 26.9231 86.0203 27.0936 86.0393 27.3344L85.7266 31.0665L85.7834 31.1267V31.1568C85.6508 31.5781 85.5181 32.792 85.3855 34.7985V35.6714C85.3855 36.9756 85.4423 37.6277 85.556 37.6277H85.6697C86.0109 37.6277 86.5604 37.5474 87.3184 37.3869C87.3942 37.407 87.5648 37.5274 87.8301 37.7481C87.7543 39.5539 87.6406 40.4568 87.489 40.4568L87.1763 40.186L86.3235 40.2462L83.1683 40.186C82.9977 40.186 82.8272 39.7746 82.6566 38.952C82.5429 38.8516 82.4861 38.7313 82.4861 38.5908L82.5429 38.3199H82.4576C82.306 38.3199 81.747 38.5908 80.7805 39.1326C80.7237 39.273 80.0604 39.564 78.7907 40.0054C78.5064 40.1659 78.1274 40.3264 77.6537 40.4869C77.3694 40.3064 76.9146 40.1258 76.2892 39.9452C75.0953 38.7012 74.3657 37.6076 74.1004 36.6646C73.6077 35.9222 73.3614 34.337 73.3614 31.9092L73.674 28.3878V28.2975C73.674 28.2574 73.0297 28.127 71.7411 27.9062C71.6274 27.7257 71.5705 27.224 71.5705 26.4014C71.5705 25.8596 71.6558 25.5888 71.8264 25.5888C71.8264 25.368 72.5654 25.2176 74.0436 25.1373ZM73.5603 25.4985L73.4466 25.5587V25.6189H73.6456V25.5587L73.5603 25.4985ZM74.271 25.7392L74.1289 25.7994V25.8295C74.1289 25.8496 74.271 25.9399 74.5552 26.1004C74.5552 26.3613 74.5742 26.4917 74.6121 26.4917H74.7827C75.2375 26.4917 75.5123 26.4114 75.607 26.2509V26.1907C75.607 26.0502 75.3227 25.9399 74.7542 25.8596C74.7542 25.8195 74.6405 25.7794 74.4131 25.7392H74.271ZM72.338 26.582H71.9685V26.6723L72.0254 26.7024H72.1106L72.338 26.6723V26.582ZM72.338 26.8829H72.1106V26.9431C72.1296 27.0635 72.2338 27.1237 72.4233 27.1237L72.4517 27.0635V27.0033L72.338 26.8829ZM82.9124 26.1606H82.8556C82.8556 26.3613 83.0072 26.4616 83.3104 26.4616H83.481L83.5662 26.4014V26.3713C83.5662 26.271 83.3483 26.2007 82.9124 26.1606ZM73.0771 27.2441C73.0771 27.3645 73.3803 27.535 73.9867 27.7558H74.271C74.3468 27.7558 74.3847 27.6855 74.3847 27.5451C74.1762 27.3244 73.9204 27.1839 73.6172 27.1237H73.3898C73.2003 27.1237 73.0961 27.1638 73.0771 27.2441ZM72.7076 27.1538L72.5654 27.214V27.3043L72.5939 27.3344V27.3645C72.7644 27.3244 72.8497 27.2742 72.8497 27.214V27.1538H72.7076ZM75.209 27.4849V28.0567L75.2943 28.1169C75.408 28.0567 75.4649 27.9363 75.4649 27.7558V27.4247C75.4649 27.3043 75.4364 27.224 75.3796 27.1839H75.3227C75.2469 27.204 75.209 27.3043 75.209 27.4849ZM72.0822 27.3645L71.9685 27.4849L72.0254 27.5451H72.2528L72.338 27.4849L72.2243 27.3645H72.0822ZM83.1683 27.1237L83.083 27.214V27.2742C83.083 27.3545 83.1493 27.3946 83.282 27.3946H83.3104C83.4431 27.3946 83.5189 27.3545 83.5378 27.2742V27.214C83.5189 27.1538 83.4241 27.1237 83.2536 27.1237H83.1683ZM73.9583 28.8393V29.08L74.3847 28.9296V28.2975L74.3278 28.2072C74.2331 28.2072 74.1099 28.4179 73.9583 28.8393ZM83.5662 30.4344V30.5548H83.5947C83.7842 30.5548 83.8789 30.3241 83.8789 29.8626C83.86 29.6619 83.8315 29.5616 83.7936 29.5616C83.7368 29.5616 83.661 29.8525 83.5662 30.4344ZM84.7033 31.3674H84.618L84.5611 31.4878C84.599 31.5882 84.6369 31.6383 84.6748 31.6383H84.7033V31.3674ZM74.47 32.2102L74.3847 32.1801L74.271 32.3005V32.3607L74.3847 32.4208L74.47 32.3306V32.2102ZM83.1683 33.2937L83.3104 33.4442C83.4052 33.404 83.462 33.2034 83.481 32.8422L83.4525 32.782H83.3957C83.2441 32.9024 83.1683 33.073 83.1683 33.2937ZM75.0385 33.2335V33.4442C75.0385 33.705 75.1617 33.9057 75.408 34.0461H75.4933C75.4933 33.3037 75.4364 32.9325 75.3227 32.9325H75.209C75.0953 32.9927 75.0385 33.093 75.0385 33.2335ZM83.1114 33.6247L83.0261 33.715V33.9859L83.1114 34.1063C83.2251 34.0461 83.3104 33.9558 83.3673 33.8354V33.715L83.282 33.6247H83.1114ZM74.072 33.9558L73.9867 34.0461V34.1665C73.9867 34.949 74.3847 36.173 75.1806 37.8384C75.3322 37.9387 75.4364 37.9889 75.4933 37.9889V37.8384L74.669 35.4005C74.4226 34.4775 74.2331 33.9959 74.1004 33.9558H74.072ZM83.7936 34.7985L83.6799 34.9189V34.949L83.7936 35.0393L83.8789 34.949L83.8505 34.7985H83.7936ZM80.6668 36.2733L80.6952 36.3335H80.7237C81.1785 35.6914 81.4059 35.3202 81.4059 35.2199V35.1597H81.3206C81.169 35.3604 80.9511 35.7316 80.6668 36.2733ZM75.5786 35.2199V35.25C75.6354 35.3704 75.7112 35.4306 75.806 35.4306V35.4005C75.806 35.2801 75.7302 35.2199 75.5786 35.2199ZM83.7368 35.2801H83.6799V35.4607C83.6799 35.7817 83.7273 36.193 83.8221 36.6947H83.9073C83.9831 36.3937 84.021 36.1028 84.021 35.8218V35.6112C84.021 35.3905 83.9263 35.2801 83.7368 35.2801ZM82.2018 35.5811L82.0881 35.4306C81.9744 35.5911 81.9175 35.7115 81.9175 35.7918L82.0597 35.882H82.0881L82.2018 35.7918V35.5811ZM83.1683 35.882H83.1114V36.0927H83.1683L83.2536 36.0024V35.9121L83.1683 35.882ZM76.4029 36.7549H76.3745V36.8452L76.4314 36.9354H76.4598V36.8452L76.4029 36.7549ZM84.9591 36.785L84.6748 37.2364V37.3267H84.9591L85.0728 37.2364V37.0859C85.0728 36.9054 85.0349 36.805 84.9591 36.785ZM82.3155 37.2966V37.3267H82.3723L82.5713 37.1461V37.0257C82.4008 37.0257 82.3155 37.116 82.3155 37.2966ZM83.1683 37.2364L83.083 37.3267V37.6879C83.083 39.0924 83.1493 39.7947 83.282 39.7947H83.3673C83.4999 39.7746 83.5662 39.7144 83.5662 39.6141C83.4146 39.3332 83.3294 38.6008 83.3104 37.417L83.1683 37.2364ZM76.2039 37.3869H76.1187V37.5073C76.1376 37.5876 76.2039 37.6277 76.3176 37.6277V37.5073L76.2039 37.3869ZM76.9146 37.5976H76.8293V37.6277C76.8293 37.8484 77.1609 38.1694 77.8242 38.5908C78.5822 38.2698 78.9613 38.0691 78.9613 37.9889V37.9588C78.4685 37.9588 77.7863 37.8384 76.9146 37.5976ZM78.279 38.7112V38.7714H78.6201C79.3592 38.5908 79.8519 38.3199 80.0983 37.9588V37.8384H79.9562C79.8425 37.8384 79.2834 38.1293 78.279 38.7112ZM86.6646 38.0791L85.7834 38.1995V38.3199L85.954 38.35H86.0677C86.4846 38.33 86.6931 38.2597 86.6931 38.1393V38.0791H86.6646ZM86.6646 38.5908H86.5509V38.7714H86.6646L86.7499 38.7112V38.651C86.7499 38.6109 86.7215 38.5908 86.6646 38.5908ZM84.3622 39.0724L84.2769 39.1326V39.2228C84.3148 39.3232 84.4285 39.3733 84.618 39.3733H84.9022L84.9875 39.3131V39.2529C84.9875 39.1526 84.8643 39.0924 84.618 39.0724H84.3622ZM77.7389 39.3733H77.5115L76.3745 39.2529H76.3176L76.2039 39.3733V39.4034C76.2039 39.584 76.7346 39.7847 77.7958 40.0054C78.118 40.0054 78.7528 39.7546 79.7003 39.2529L79.7287 39.2228V39.1326H79.5298C78.9613 39.2931 78.3643 39.3733 77.7389 39.3733Z" fill="#fefefe"/>
<path d="M97.2106 23.4217V23.3616C97.3812 23.5421 97.7602 23.6826 98.3477 23.7829C98.7267 23.7829 99.5226 24.2444 100.735 25.1674L101.105 25.3179H101.247L101.759 25.5888C102.27 25.97 102.564 26.2609 102.64 26.4616V26.5218C102.64 26.602 102.526 26.7525 102.299 26.9732C102.242 27.3143 101.844 27.9765 101.105 28.9597V29.08L101.133 29.381C100.868 29.381 100.603 29.4512 100.337 29.5917C100.224 29.5917 100.12 29.4512 100.025 29.1703C99.4752 28.8092 99.2004 28.5182 99.2004 28.2975L99.5415 27.3344C99.5415 26.9532 98.9162 26.6823 97.6654 26.5218L95.8178 26.4014C95.1734 26.4014 94.2922 26.6723 93.1742 27.214C92.5677 27.5551 92.094 28.2574 91.7529 29.3208C91.4876 30.2639 91.2696 30.8257 91.0991 31.0063L90.8148 30.7956C90.6822 30.936 90.6158 31.1668 90.6158 31.4878L90.9854 31.2772C91.0422 31.2772 91.0801 31.3474 91.0991 31.4878L90.9001 32.8723C90.9759 32.8924 91.1559 33.4843 91.4402 34.6481L91.3549 34.8286V34.949C91.4497 35.0493 91.5255 35.3804 91.5823 35.9422C91.7529 36.5442 92.293 37.0859 93.2026 37.5675L94.7092 38.7413C96.3958 38.7413 97.8834 38.35 99.172 37.5675C100.461 36.3837 101.105 35.6112 101.105 35.25L100.991 34.7985V34.7383C101.029 34.618 101.446 34.1364 102.242 33.2937C102.28 33.2937 102.432 33.4341 102.697 33.715V33.8354L102.583 33.8655L102.356 33.8354H102.327V33.9558C103.047 34.016 103.407 34.2066 103.407 34.5277C103.711 34.949 104.023 35.5911 104.346 36.4539C104.459 36.4539 104.554 36.6947 104.63 37.1762C104.857 37.2766 104.99 37.3869 105.028 37.5073C105.028 37.6879 104.914 37.7882 104.687 37.8083C104.251 37.9487 103.843 38.2798 103.464 38.8015C102.801 38.0992 102.45 37.7481 102.413 37.7481L100.849 38.8015C100.337 39.0824 99.8542 39.4135 99.3994 39.7947L96.4716 40.7879L96.0167 40.8481C95.4103 40.8481 94.5102 40.6475 93.3163 40.2462C92.0277 39.6643 91.3265 39.2128 91.2128 38.8918C89.6209 36.8652 88.825 35.3002 88.825 34.1966L88.7397 33.1733C88.8913 32.4108 88.9671 31.548 88.9671 30.5849L89.7346 28.6286C89.7346 28.0668 90.0947 27.3444 90.8148 26.4616C91.1749 25.5587 92.2077 24.7059 93.9132 23.9033C94.5576 23.6826 95.6567 23.5221 97.2106 23.4217ZM92.4351 25.047V25.1674L93.9132 24.5654L94.8513 24.114C95.2113 24.0337 95.3914 23.9635 95.3914 23.9033V23.8732C94.5765 23.8732 93.6005 24.2645 92.4635 25.047H92.4351ZM98.035 24.0839L97.8644 24.0538L97.8076 24.0839V24.1742L97.8928 24.2344H98.035V24.0839ZM95.1924 25.0169V25.1674L95.5051 25.2276C96.6232 25.2276 97.2485 25.1273 97.3812 24.9266C97.3812 24.8664 97.2296 24.8263 96.9264 24.8062C96.0925 24.8263 95.5146 24.8965 95.1924 25.0169ZM97.9781 25.0169H97.637V25.047C97.637 25.1674 97.8265 25.2477 98.2055 25.2878L98.2908 25.1674C98.2908 25.0671 98.1866 25.0169 97.9781 25.0169ZM98.6035 25.2878H98.5466V25.3179L98.6319 25.4684H98.7172V25.3781L98.6035 25.2878ZM94.0838 25.5888V25.7091H94.1975C94.6334 25.6088 94.8513 25.5085 94.8513 25.4082L94.766 25.3179H94.7092C94.2922 25.4583 94.0838 25.5486 94.0838 25.5888ZM92.0371 25.3781L91.895 25.4985V25.5888H91.9803L92.1508 25.4082V25.3781H92.0371ZM95.6756 25.9198L95.9599 25.98H95.9883C96.5947 25.96 96.9169 25.8897 96.9548 25.7693V25.679H96.6421C95.9978 25.679 95.6756 25.7593 95.6756 25.9198ZM97.7791 25.7091H97.5233V25.7693C97.5233 25.8295 97.7791 25.8797 98.2908 25.9198V25.8596L97.7791 25.7091ZM100.195 26.1004H100.053V26.2208H100.11L100.195 26.1305V26.1004ZM93.1742 26.1606L93.0605 26.3412V26.3713H93.1742L93.2594 26.2509L93.1742 26.1606ZM101.588 26.8227V26.8528L101.759 26.913H101.787L101.929 26.7325V26.582L101.872 26.5218C101.683 26.5218 101.588 26.6221 101.588 26.8227ZM91.6392 27.1237H91.696C91.9613 26.9632 92.094 26.8027 92.094 26.6422C91.8666 26.6422 91.715 26.8027 91.6392 27.1237ZM90.7295 28.2975V28.3276L90.8148 28.4179H90.8432C91.0517 28.2373 91.1559 28.0668 91.1559 27.9062V27.8461H91.0991C90.8527 27.9865 90.7295 28.137 90.7295 28.2975ZM90.9001 28.9597H90.8148L90.3032 29.8927V30.0432L90.3884 30.1635H90.4737C90.5495 30.1635 90.6916 29.8325 90.9001 29.1703V28.9597ZM89.7346 32.8723V32.9626C89.7346 33.1633 89.8199 33.2836 89.9905 33.3238C90.1231 33.3238 90.1421 33.0027 90.0473 32.3607L90.0189 32.2102H89.9336C89.8768 32.2102 89.8104 32.4309 89.7346 32.8723ZM90.6158 33.4141C90.5021 33.5144 90.4453 33.6749 90.4453 33.8956C90.4453 33.9959 90.5306 34.1966 90.7011 34.4976C90.8148 34.8387 90.9569 35.0092 91.1275 35.0092V34.9189C91.1275 34.618 90.9569 34.1163 90.6158 33.4141ZM103.066 34.7985H102.953V34.9189C102.953 35.1597 103.313 35.9322 104.033 37.2364L104.203 37.2665L104.289 37.1762C103.985 36.6345 103.711 36.0125 103.464 35.3102L103.066 34.7985ZM102.384 35.4005V35.4607C102.517 35.9021 102.64 36.1228 102.754 36.1228L102.811 36.0024V35.882C102.735 35.561 102.593 35.4005 102.384 35.4005ZM90.5874 35.7918H90.5021V35.9422C90.5779 36.1429 90.7011 36.2432 90.8717 36.2432C90.8717 36.0827 90.7769 35.9322 90.5874 35.7918ZM100.565 36.9354H100.622C100.716 36.9154 100.84 36.7749 100.991 36.5141V36.4238C100.802 36.4238 100.66 36.5943 100.565 36.9354ZM91.1275 36.4539V36.6345C91.2223 36.8151 91.3265 36.9054 91.4402 36.9054H91.497V36.7549C91.4212 36.5542 91.2981 36.4539 91.1275 36.4539ZM90.7864 37.2364H90.6158V37.2665C90.6158 37.5675 90.919 37.8885 91.5255 38.2296H91.7813V38.1694C91.7813 37.9487 91.4497 37.6377 90.7864 37.2364ZM103.095 37.8685V38.0491L103.18 38.1092H103.351C103.407 38.1092 103.55 37.9688 103.777 37.6879V37.6578C103.777 37.5976 103.616 37.5173 103.294 37.417C103.161 37.417 103.095 37.5675 103.095 37.8685ZM98.8025 38.4102H98.8309L98.8878 38.4403C99.3615 38.2397 99.5984 38.029 99.5984 37.8083C99.0678 38.0691 98.8025 38.2698 98.8025 38.4102ZM91.6676 38.6811C91.8381 38.9821 92.5204 39.4335 93.7143 40.0355L94.3112 40.2161H94.368V40.1258C93.1552 39.584 92.4161 39.1125 92.1508 38.7112C92.0561 38.6309 91.9613 38.5908 91.8666 38.5908H91.7244C91.6865 38.5908 91.6676 38.6209 91.6676 38.6811ZM92.7478 38.5908H92.6625C92.6625 38.7513 93.0036 38.952 93.6858 39.1927L95.0787 39.6743H95.363L95.4767 39.5539V39.4636H95.4482C95.0692 39.4636 94.7186 39.3232 94.3965 39.0423L93.9417 38.8617H93.8848L93.7143 39.0423H93.6858C93.5532 39.0423 93.2405 38.8918 92.7478 38.5908ZM98.4045 39.5539H98.4614C98.8783 39.4335 99.2099 39.2228 99.4563 38.9219V38.8918H99.3994C99.2099 38.8918 98.8783 39.1125 98.4045 39.5539ZM97.6086 39.1025V39.1326H97.6654C97.836 39.1326 97.9402 39.0824 97.9781 38.9821V38.9219C97.7318 38.9419 97.6086 39.0021 97.6086 39.1025ZM96.0167 40.4267V40.4568C96.0167 40.5572 96.2157 40.6274 96.6137 40.6675V40.5471L96.5853 40.4869L96.699 40.3966L96.5853 40.2462H96.4147C96.1494 40.2863 96.0167 40.3465 96.0167 40.4267Z" fill="#fefefe"/>
<path d="M109.292 23.7528L112.816 23.6625C113.12 23.6625 113.754 23.803 114.721 24.0839C115.82 25.1875 116.474 26.0502 116.682 26.6723C117.099 27.1338 117.431 28.0467 117.677 29.4111C117.98 29.7322 118.132 30.4445 118.132 31.548L118.16 32.3005L118.047 35.2801C118.047 35.882 118.397 36.6244 119.099 37.5073C119.743 38.1694 120.16 38.5005 120.349 38.5005V38.5607C120.349 38.8015 120.018 39.1827 119.354 39.7044C118.862 40.2261 118.549 40.4869 118.416 40.4869H118.388C118.085 40.4468 117.317 39.8549 116.085 38.7112C113.849 39.6342 112.722 40.1057 112.703 40.1258C111.964 40.3665 111.139 40.4869 110.23 40.4869H110.088C109.064 40.3064 108.192 39.885 107.472 39.2228C107.34 39.1025 107.065 38.6008 106.648 37.718C106.307 37.2766 106.136 36.7348 106.136 36.0927V35.2199C106.136 34.6581 106.278 34.1364 106.563 33.6548C106.809 32.8322 107.235 32.0496 107.842 31.3072C108.145 30.926 108.448 30.6852 108.752 30.5849C109.737 30.0231 110.713 29.7422 111.679 29.7422L112.959 29.7121H113.129C113.849 29.7121 114.361 29.8224 114.664 30.0432H114.835C114.929 30.0432 114.977 30.003 114.977 29.9228C114.768 28.9797 114.427 28.0768 113.953 27.214C113.537 26.4716 112.76 26.1004 111.623 26.1004L110.457 25.9198C109.453 26.1405 108.95 26.3613 108.95 26.582C108.553 27.1237 108.316 27.7959 108.24 28.5985C108.202 28.6988 107.861 28.749 107.217 28.749L107.046 28.8092C106.97 28.8092 106.875 28.9797 106.762 29.3208C106.231 29.2406 105.966 29.1202 105.966 28.9597C106.004 28.8393 106.07 28.1169 106.165 26.7926C106.468 25.8697 107.188 25.0169 108.325 24.2344C108.856 23.9133 109.178 23.7528 109.292 23.7528ZM112.475 24.2645L112.418 24.3548L112.504 24.4752H112.674L112.703 24.415L112.617 24.2645H112.475ZM114.636 24.5053H114.579V24.5654C114.73 24.726 114.863 24.8062 114.977 24.8062H115.005V24.746C114.854 24.5855 114.73 24.5053 114.636 24.5053ZM110.088 24.6557V24.746C110.106 24.8062 110.201 24.8363 110.372 24.8363C110.542 24.8363 110.779 24.7761 111.082 24.6557V24.5353H110.969C110.552 24.5353 110.258 24.5755 110.088 24.6557ZM107.529 25.6189V25.679H107.558C107.728 25.679 107.984 25.4884 108.325 25.1072V25.0169H108.297C108.107 25.0169 107.851 25.2176 107.529 25.6189ZM111.48 25.4082L111.338 25.5286L111.424 25.679H111.793L111.878 25.5888L111.708 25.4082H111.48ZM107.302 27.8461L107.217 27.9062V28.3577H107.245C107.321 28.3376 107.359 28.2674 107.359 28.147V27.9062L107.302 27.8461ZM117.62 30.2538H117.592V30.314C117.63 30.4746 117.668 30.5548 117.706 30.5548L117.734 30.4043C117.696 30.304 117.658 30.2538 117.62 30.2538ZM116.967 31.3072L116.881 31.3674V31.4577C116.957 31.7587 117.033 31.9092 117.109 31.9092H117.166C117.166 31.6484 117.109 31.4477 116.995 31.3072H116.967ZM108.638 31.4878L108.325 31.6383V31.7888H108.382C108.515 31.7888 108.609 31.7085 108.666 31.548V31.4878H108.638ZM108.325 34.3471C108.458 35.551 108.619 36.1529 108.808 36.1529L109.093 36.5442V36.5743L108.837 36.5442V36.6345C109.197 37.1562 109.936 37.6377 111.054 38.0791C111.187 38.1594 111.376 38.2196 111.623 38.2597C111.964 38.2597 113.271 37.6678 115.545 36.484C115.697 36.3837 115.773 36.2733 115.773 36.1529V36.0024C115.602 35.1798 115.46 34.2167 115.346 33.1131L115.289 33.083C115.289 32.8623 115.081 32.6817 114.664 32.5412C113.262 32.1199 112.305 31.9092 111.793 31.9092C110.353 32.2503 109.367 32.762 108.837 33.4442C108.496 33.8053 108.325 34.1063 108.325 34.3471ZM116.881 32.3908L116.796 32.3306V32.4208H116.881V32.3908ZM116.995 32.9626H116.824V33.083L116.91 33.1733L116.995 33.083V32.9626ZM116.085 33.715L116 33.8053L116.085 33.9257L116.199 33.8956V33.8053L116.114 33.715H116.085ZM117.109 33.8053H117.023V33.8354C117.061 34.5979 117.137 34.9791 117.251 34.9791L117.308 34.9189V34.8587C117.308 34.4374 117.241 34.0862 117.109 33.8053ZM116 34.7684L115.972 34.7985V34.9791L116.057 35.0995H116.085L116.199 34.9791V34.7985L116.114 34.7684H116ZM118.416 37.5976H118.331V37.7782C118.407 38.039 118.492 38.1694 118.587 38.1694H118.672V38.0791C118.596 37.7581 118.511 37.5976 118.416 37.5976ZM107.956 37.6879L107.899 37.7481V37.7782L107.956 37.8384H108.098V37.7782L108.012 37.6879H107.956ZM117.535 38.0791L117.45 38.1694C117.507 38.3099 117.582 38.4002 117.677 38.4403H117.706L117.819 38.3199V38.2597L117.677 38.0791H117.535ZM113.413 38.5005V38.5607H113.527C113.792 38.5607 114.143 38.4403 114.579 38.1995V38.1694H114.465C113.821 38.2497 113.47 38.3601 113.413 38.5005ZM118.16 38.5908L118.104 38.7112V38.7714L118.217 38.8918H118.331L118.416 38.8316V38.7714L118.274 38.5908H118.16ZM111.139 38.8316L111.054 38.9219C111.092 39.0222 111.168 39.0724 111.281 39.0724C111.49 39.0322 111.594 38.9821 111.594 38.9219V38.8918L111.509 38.8316H111.139ZM108.041 39.2529L107.956 39.3733C108.031 39.5539 108.505 39.7847 109.377 40.0656C109.661 40.206 110.04 40.2763 110.514 40.2763V40.2462C110.514 40.186 110.154 40.0756 109.434 39.9151C109.017 39.7947 108.581 39.574 108.126 39.2529H108.041Z" fill="#fefefe"/>
<path d="M126.461 22.0373L126.887 21.9169C127.38 21.9169 128.792 22.2179 131.123 22.8198C132.222 23.3616 132.857 23.6324 133.027 23.6324C133.179 23.4117 133.255 23.1308 133.255 22.7897V22.5188C133.255 22.258 133.425 22.1276 133.766 22.1276C133.994 21.947 134.316 21.8567 134.733 21.8567C135.301 21.8567 135.585 21.9269 135.585 22.0674L135.841 24.8965V25.7693C135.841 26.4917 135.747 26.9231 135.557 27.0635C135.387 27.2441 135.254 27.3344 135.159 27.3344C134.098 27.2341 133.567 27.0836 133.567 26.8829C133.435 26.4014 133.103 26.0502 132.572 25.8295C130.753 24.8664 129.446 24.3849 128.65 24.3849L127.854 24.3247C126.906 24.3247 126.347 24.5153 126.177 24.8965C125.949 25.2176 125.835 25.6489 125.835 26.1907V26.2208C125.835 27.3244 126.376 28.2373 127.456 28.9597C128.536 29.4211 129.474 29.6519 130.27 29.6519C130.27 29.8124 130.696 30.0331 131.549 30.314C131.72 30.615 132.089 30.7655 132.658 30.7655C133.245 31.0063 134.088 31.7687 135.188 33.0529L135.301 33.1733V33.2937C135.301 33.3338 135.244 33.3539 135.131 33.3539V33.4141C135.396 34.016 135.529 34.3671 135.529 34.4675C135.529 36.2733 135.254 37.407 134.704 37.8685C134.458 38.4102 133.937 38.9419 133.141 39.4636C132.25 40.3264 131.341 40.7578 130.412 40.7578H129.417C127.92 40.517 127.171 40.3164 127.171 40.1559C126.3 39.5138 125.798 39.1927 125.665 39.1927C124.736 38.7313 124.092 38.2497 123.732 37.7481H123.618C123.391 38.4503 123.201 38.8015 123.05 38.8015C121.856 38.6008 121.259 38.3801 121.259 38.1393C121.145 37.7982 121.079 36.9254 121.06 35.5209L121.344 33.6548C121.344 32.9726 121.42 32.6315 121.572 32.6315L123.391 32.4208C123.523 32.4208 123.656 32.9726 123.789 34.0762L124.585 35.6112C124.585 35.6714 125.428 36.2733 127.115 37.417C127.532 37.9186 128.128 38.1694 128.905 38.1694H129.9C130.905 38.1694 131.587 37.8283 131.947 37.1461C132.383 36.6445 132.705 35.9121 132.913 34.949V34.8587C132.913 34.2769 132.43 33.5445 131.464 32.6616C131.047 32.16 130.516 31.9092 129.872 31.9092C129.493 31.7286 128.64 31.538 127.314 31.3373L125.04 30.1034L123.931 29.1101C123.457 28.3477 123.201 27.8059 123.163 27.4849L123.22 26.9732L123.107 25.8295C123.107 25.5486 123.268 25.2176 123.59 24.8363C123.59 24.5955 124.045 24.0438 124.954 23.181C125.807 22.6994 126.309 22.3182 126.461 22.0373ZM126.745 22.3382V22.4586C126.745 22.5389 126.868 22.6091 127.115 22.6693C127.626 22.6292 127.882 22.559 127.882 22.4586V22.3382C127.882 22.1978 127.617 22.1276 127.086 22.1276C126.935 22.1276 126.821 22.1978 126.745 22.3382ZM134.164 22.278V22.3382C134.373 22.6994 134.553 22.88 134.704 22.88C134.856 22.88 134.97 22.7797 135.045 22.579V22.4586C135.045 22.3382 134.752 22.278 134.164 22.278ZM135.159 23.2111L135.074 23.3315L135.159 23.3916H135.301V23.2111H135.159ZM127.541 23.6625C127.617 23.7428 127.712 23.7829 127.825 23.7829C128.015 23.7829 128.214 23.6726 128.422 23.4518L128.28 23.3315H127.967C127.683 23.3315 127.541 23.4418 127.541 23.6625ZM131.407 23.6324V23.6625C131.407 23.7227 131.521 23.7628 131.748 23.7829H131.833V23.7528C131.833 23.7127 131.691 23.6726 131.407 23.6324ZM128.849 24.0237L128.735 24.1441C128.735 24.2845 129.076 24.3748 129.758 24.415V24.3247C129.758 24.2444 129.474 24.1441 128.905 24.0237H128.849ZM124.869 24.9567V24.9868L124.926 25.0169H125.04C125.456 24.6959 125.665 24.435 125.665 24.2344H125.58C125.371 24.2344 125.134 24.4752 124.869 24.9567ZM133.198 24.4451L133.141 24.5053C133.406 24.726 133.709 24.8765 134.05 24.9567L134.079 24.8965V24.8363C134.079 24.736 133.804 24.6056 133.255 24.4451H133.198ZM124.755 24.5053L124.67 24.5353L124.698 24.5955V24.6256L124.812 24.5955V24.5053H124.755ZM131.748 24.746L131.72 24.7761V24.8363C132.307 25.1975 132.677 25.3781 132.828 25.3781V25.348C132.828 25.2276 132.468 25.0269 131.748 24.746ZM123.959 24.8363H123.817L123.789 25.047V25.1373L123.817 25.1975L123.959 24.8965V24.8363ZM123.675 25.5587L123.59 25.5888C123.628 25.97 123.675 26.2409 123.732 26.4014H123.817V26.3713L123.789 25.5587H123.675ZM124.443 25.8295L124.329 25.9198V26.0101H124.414L124.556 25.8897V25.8295H124.443ZM133.965 26.6121L133.852 26.6723C134.003 26.7726 134.278 26.8227 134.676 26.8227L135.244 26.7926V26.6723C134.903 26.6321 134.553 26.6121 134.193 26.6121H133.965ZM125.636 28.2975L125.58 28.3276V28.3878L125.636 28.4781H125.921V28.3878C125.902 28.3276 125.807 28.2975 125.636 28.2975ZM124.329 28.3878L124.272 28.4781V28.5082L124.329 28.5684H124.414V28.4781L124.329 28.3878ZM124.841 28.5684H124.812V28.6286C124.945 29.07 125.077 29.2907 125.21 29.2907H125.324L125.466 29.1402V29.1101C125.22 28.749 125.011 28.5684 124.841 28.5684ZM126.262 28.5684L126.205 28.6286V28.8092L126.376 28.9898H126.461L126.546 28.9296V28.7791C126.47 28.6386 126.376 28.5684 126.262 28.5684ZM127.171 29.2907L127.115 29.3509V29.381C127.361 29.6218 127.73 29.8325 128.223 30.0131L128.28 29.9228C128.28 29.8024 127.911 29.5917 127.171 29.2907ZM128.735 30.0432C128.735 30.1234 129.408 30.3341 130.753 30.6752L131.123 30.7053H131.208V30.6752C130.639 30.2137 129.948 29.9428 129.133 29.8626C128.868 29.9629 128.735 30.0231 128.735 30.0432ZM126.29 30.1635H126.262C126.262 30.304 126.385 30.4144 126.631 30.4946L126.688 30.4645C126.688 30.3642 126.556 30.2639 126.29 30.1635ZM129.076 30.916V31.0364L129.559 31.217H129.872V31.1267C129.531 30.9862 129.265 30.916 129.076 30.916ZM132.118 31.3373H131.862V31.4276C131.975 31.548 132.478 31.849 133.368 32.3306C133.747 32.6917 134.041 32.8723 134.249 32.8723H134.278L134.335 32.782C133.899 32.1801 133.16 31.6985 132.118 31.3373ZM132.828 33.1733H132.8V33.3238C132.8 33.5244 132.961 33.7652 133.283 34.0461H133.454V33.8053C133.454 33.5645 133.245 33.3539 132.828 33.1733ZM122.595 33.5946H122.453V33.715L122.51 33.7752L122.623 33.715L122.595 33.5946ZM121.486 36.0024L121.515 36.7549H121.543C121.676 36.6746 121.742 36.2031 121.742 35.3403V35.0995L121.685 35.0393H121.628C121.572 35.0393 121.524 35.3604 121.486 36.0024ZM133.34 35.5209H133.198V35.6714L133.283 35.7015L133.368 35.6112L133.34 35.5209ZM134.96 35.5209L134.733 35.7617V35.9121L134.79 36.0024H134.875C134.989 35.9824 135.045 35.8218 135.045 35.5209H134.96ZM123.703 36.5442H123.618V36.6646C123.902 37.0458 124.177 37.2364 124.443 37.2364H124.499V37.1461C124.083 36.7448 123.817 36.5442 123.703 36.5442ZM132.516 37.6277V37.7481H132.572C132.743 37.6277 132.885 37.4571 132.999 37.2364L132.942 37.1461C132.79 37.2465 132.648 37.407 132.516 37.6277ZM122.396 37.5675H122.254V37.6879L122.396 37.7782L122.51 37.7481V37.6879L122.396 37.5675ZM134.05 37.8986L133.084 38.7413V38.8015C133.084 38.8416 133.122 38.8617 133.198 38.8617C133.425 38.8617 133.738 38.5406 134.136 37.8986H134.05ZM127.285 39.2529L126.461 39.1927V39.2529C126.461 39.3332 126.707 39.4335 127.2 39.5539L127.314 39.6743H127.456C127.418 39.3934 127.361 39.2529 127.285 39.2529ZM128.223 39.6743L128.138 39.584V39.7044H128.223V39.6743ZM127.967 40.0054H127.911L128.024 40.1559H128.252V40.1258C128.233 40.0455 128.138 40.0054 127.967 40.0054ZM131.265 40.0054L131.208 40.0656V40.1559L131.265 40.2161H131.378C131.739 40.196 131.919 40.1458 131.919 40.0656L131.833 40.0054H131.265ZM128.536 40.186C128.801 40.3465 129.161 40.4267 129.616 40.4267H129.673L130.895 40.3665V40.3064C130.838 40.1458 130.185 40.0656 128.934 40.0656C128.669 40.0656 128.536 40.1057 128.536 40.186Z" fill="#fefefe"/>
<path d="M152.357 19.3586L154.233 19.7499C154.555 19.7499 155.105 20.0408 155.882 20.6227H155.995C156.014 19.8402 156.081 19.4489 156.194 19.4489C156.763 19.6696 157.104 19.78 157.218 19.78H157.786L158.241 19.7499L158.298 19.8402L158.269 20.0207V23.8732C158.269 24.0939 158.203 24.2745 158.07 24.415C158.222 24.5755 158.298 24.726 158.298 24.8664C158.298 25.0069 158.241 25.1774 158.127 25.3781L158.212 25.8897C158.212 26.1305 158.156 26.2509 158.042 26.2509L157.303 26.1305H157.274L156.876 26.2509H156.82C156.744 26.2509 156.621 25.8195 156.45 24.9567C156.45 24.6758 156.336 24.425 156.109 24.2043C155.863 23.823 155.739 23.5622 155.739 23.4217L155.91 23.3616V23.3315C155.626 23.0907 155.455 22.8198 155.398 22.5188C154.621 21.6962 153.958 21.2848 153.408 21.2848H153.21C153.001 21.2848 152.054 21.4955 150.367 21.9169C150.215 22.0373 149.969 22.4185 149.628 23.0606C149.268 23.5622 149.088 24.0438 149.088 24.5053C149.201 25.7894 149.353 26.4315 149.543 26.4315C149.789 27.1137 150.083 27.525 150.424 27.6655C150.481 27.7658 150.708 27.8661 151.106 27.9664C151.371 28.2273 151.93 28.5483 152.783 28.9296C152.783 29.0098 152.878 29.06 153.067 29.08L153.408 28.9597C153.56 28.9998 153.636 29.0399 153.636 29.08V29.1101L153.522 29.2305V29.3208C153.787 29.6619 154.11 29.8325 154.489 29.8325V29.8024L153.949 29.3208V29.2907C154.119 29.2907 154.726 29.6419 155.768 30.3441C157.341 31.8891 158.127 32.8723 158.127 33.2937C158.392 34.5176 158.525 35.2801 158.525 35.5811C158.355 37.106 158.193 37.8685 158.042 37.8685L157.36 39.1326C156.052 39.9753 155.285 40.3966 155.057 40.3966C152.878 39.895 151.428 39.4937 150.708 39.1927C149.23 37.728 148.491 36.8652 148.491 36.6044L148.377 36.5141L148.32 36.5442V38.3801C148.32 38.5206 147.979 38.5908 147.297 38.5908H146.785L146.359 38.7413C146.226 38.7413 146.056 38.6309 145.847 38.4102V38.3801L145.989 38.1393C146.122 34.7684 146.283 33.083 146.473 33.083H146.529L147.041 33.1733C147.136 33.1733 147.231 33.1432 147.325 33.083L147.695 33.1733L147.894 33.1131H148.008C148.083 33.1532 148.254 33.4442 148.519 33.9859C149.239 34.949 149.884 35.872 150.452 36.7549C150.528 36.7549 150.765 37.0257 151.163 37.5675L152.925 38.3801H153.437V38.5005H153.494L153.636 38.4102H153.693C153.844 38.5306 153.986 38.5908 154.119 38.5908H154.29C154.801 38.5707 155.057 38.5005 155.057 38.3801V38.3199H154.489L154.148 38.2898C154.167 38.2096 154.839 38.0591 156.166 37.8384C156.469 37.8384 156.763 37.2766 157.047 36.1529C157.047 35.7918 157.132 35.5309 157.303 35.3704V35.25C156.981 34.1866 156.621 33.4943 156.223 33.1733C155.995 32.7519 155.133 32.2603 153.636 31.6985C152.65 31.2972 151.855 30.8257 151.248 30.2839C150.357 30.003 149.846 29.692 149.713 29.3509C149.599 29.0901 149.164 28.6587 148.406 28.0567C148.064 26.9532 147.695 26.1004 147.297 25.4985C147.088 24.6156 146.984 23.6826 146.984 22.6994C147.136 22.0373 147.818 21.1243 149.031 19.9606C149.732 19.5593 150.841 19.3586 152.357 19.3586ZM149.031 20.412H149.372C149.524 20.412 150.225 20.2415 151.476 19.9004C151.93 19.8201 152.158 19.7398 152.158 19.6596L152.044 19.6295C150.035 19.8101 149.031 20.0709 149.031 20.412ZM156.535 20.0207L156.507 20.1411V20.2314C156.507 20.3518 156.583 20.412 156.734 20.412H157.218V20.3819C157.028 20.1411 156.801 20.0207 156.535 20.0207ZM149.884 21.5256H149.941C150.13 21.5256 150.575 21.345 151.277 20.9839L152.044 20.6829V20.713L151.959 20.8936H152.186L152.357 20.8334V20.713L152.3 20.6227V20.4421H152.243C151.485 20.6829 150.86 20.9337 150.367 21.1945C150.045 21.2547 149.884 21.3651 149.884 21.5256ZM154.688 20.6829H154.204C154.204 20.723 154.489 20.8233 155.057 20.9839H155.199L155.256 20.9538V20.8936C155.199 20.7531 155.01 20.6829 154.688 20.6829ZM156.649 20.713L156.592 20.8334V20.8936L156.621 21.0742H156.706L156.791 20.9839V20.8334L156.706 20.713H156.649ZM149.173 21.1343V21.1644C149.173 21.2246 149.211 21.2547 149.287 21.2547C149.381 21.2146 149.448 21.1444 149.486 21.0441V20.9839C149.315 20.9839 149.211 21.034 149.173 21.1343ZM155.626 21.2848L155.768 21.4353H155.91L155.995 21.345V21.2547C155.995 21.1945 155.919 21.1343 155.768 21.0742C155.673 21.1143 155.626 21.1845 155.626 21.2848ZM157.075 21.7062L157.161 21.7664V21.7965L157.047 21.947V22.0373C157.047 22.0774 157.123 22.1276 157.274 22.1878C157.312 22.3483 157.369 22.4386 157.445 22.4586H157.53V22.3382L157.502 22.248V22.1276H157.587L157.729 22.248H157.786L157.814 22.0674V22.0072C157.682 21.4454 157.587 21.1644 157.53 21.1644H157.36C157.17 21.2447 157.075 21.4253 157.075 21.7062ZM149.002 22.4586L149.173 22.6392H149.23C149.457 22.5991 149.666 22.4687 149.855 22.248L149.77 22.1878H149.457C149.249 22.1878 149.097 22.278 149.002 22.4586ZM147.752 22.2179L147.666 22.3081V22.3382H147.809V22.2179H147.752ZM148.519 23.6324V23.6625H148.576C148.917 23.3214 149.088 23.0204 149.088 22.7596L149.002 22.6693C148.775 22.6693 148.614 22.9904 148.519 23.6324ZM157.786 22.7596H157.644V22.8198C157.701 22.9402 157.758 23.0004 157.814 23.0004V22.88L157.786 22.7596ZM157.502 22.9703L157.417 23.0606H157.502V22.9703ZM157.047 23.1208L156.933 23.2111V23.2412L157.047 23.3616H157.161L157.274 23.2412V23.2111L157.161 23.1208H157.047ZM157.701 23.4217L157.587 23.512V23.7227L157.616 23.9334H157.701L157.786 23.4217H157.701ZM157.104 23.9334H157.047V23.9936L157.104 24.0839H157.218V23.9936L157.104 23.9334ZM157.019 24.746V25.2276L157.075 25.2878H157.104C157.255 25.2878 157.341 25.2176 157.36 25.0771C157.265 24.8363 157.218 24.6357 157.218 24.4752H157.161C157.066 24.5153 157.019 24.6056 157.019 24.746ZM157.161 25.7091L157.075 25.7994L157.218 25.8897H157.303L157.331 25.7994L157.218 25.7091H157.161ZM148.406 27.0033V27.214L148.519 27.3344H148.747V27.214C148.614 27.0736 148.5 27.0033 148.406 27.0033ZM148.946 27.816H148.917V27.9664C149.315 28.2674 149.58 28.4179 149.713 28.4179H149.827V28.2975C149.562 28.0969 149.268 27.9363 148.946 27.816ZM152.499 28.8393H152.243C152.262 28.9195 152.338 28.9597 152.47 28.9597H152.584V28.9296L152.499 28.8393ZM152.783 29.2907L152.698 29.3509C152.774 29.4713 153.086 29.6619 153.636 29.9228V29.8024C153.371 29.5415 153.086 29.371 152.783 29.2907ZM153.437 31.0966H153.295V31.2471C153.541 31.3674 153.844 31.4377 154.204 31.4577C154.204 31.538 154.271 31.5781 154.403 31.5781H154.631V31.548C154.631 31.3674 154.233 31.217 153.437 31.0966ZM155.341 31.9092H155.256V31.9995L155.341 32.0898H155.398V31.9995L155.341 31.9092ZM146.785 35.0092H146.672C146.577 35.3102 146.529 35.6914 146.529 36.1529L146.586 36.5442H146.615C146.785 36.5442 146.871 36.4639 146.871 36.3034C146.814 35.8419 146.785 35.4105 146.785 35.0092ZM147.382 35.882C147.287 36.2231 147.183 36.4439 147.07 36.5442L147.183 36.8753V37.8384C147.183 37.9788 147.221 38.0491 147.297 38.0491H147.467L147.553 37.9588V37.8384C147.553 36.5342 147.496 35.882 147.382 35.882ZM148.946 36.6345H148.917V36.6947C148.993 37.0157 149.135 37.1762 149.344 37.1762V37.116C149.211 36.795 149.078 36.6345 148.946 36.6345ZM146.615 37.2966L146.672 37.3568H146.7C146.757 37.3568 146.804 37.1562 146.842 36.7549L146.785 36.6947C146.709 36.6947 146.653 36.8953 146.615 37.2966ZM149.941 36.9054H149.884V36.9354C150.035 37.2364 150.187 37.3869 150.338 37.3869V37.2966C150.187 37.116 150.054 36.9856 149.941 36.9054ZM157.303 37.417L157.161 37.5675L157.274 37.6879H157.417L157.53 37.5675V37.5073L157.445 37.417H157.303ZM151.618 38.1092V38.1393C151.656 38.2397 151.722 38.2898 151.817 38.2898C151.779 38.1694 151.712 38.1092 151.618 38.1092ZM150.253 38.1694L150.054 38.1393V38.1694C150.244 38.6109 150.718 38.952 151.476 39.1927C152.101 39.4335 152.982 39.6843 154.119 39.9452C154.347 40.1057 154.546 40.196 154.716 40.2161H154.972C155.446 40.0756 155.683 39.895 155.683 39.6743L153.124 39.4636C151.627 38.962 150.67 38.5306 150.253 38.1694ZM155.256 39.0423V39.1025L155.341 39.1627H155.484C156.166 39.1627 156.545 39.0623 156.621 38.8617L156.507 38.8015H156.336C156.128 38.8015 155.768 38.8817 155.256 39.0423ZM154.403 39.7947V39.6743H154.46C154.593 39.6743 154.659 39.7144 154.659 39.7947H154.403Z" fill="#fefefe"/>
<path d="M162.789 23.7528L166.314 23.6625C166.617 23.6625 167.252 23.803 168.218 24.0839C169.317 25.1875 169.971 26.0502 170.18 26.6723C170.597 27.1338 170.928 28.0467 171.175 29.4111C171.478 29.7322 171.629 30.4445 171.629 31.548L171.658 32.3005L171.544 35.2801C171.544 35.882 171.895 36.6244 172.596 37.5073C173.24 38.1694 173.657 38.5005 173.847 38.5005V38.5607C173.847 38.8015 173.515 39.1827 172.852 39.7044C172.359 40.2261 172.046 40.4869 171.914 40.4869H171.885C171.582 40.4468 170.815 39.8549 169.583 38.7112C167.347 39.6342 166.219 40.1057 166.2 40.1258C165.461 40.3665 164.637 40.4869 163.727 40.4869H163.585C162.562 40.3064 161.69 39.885 160.97 39.2228C160.837 39.1025 160.562 38.6008 160.145 37.718C159.804 37.2766 159.634 36.7348 159.634 36.0927V35.2199C159.634 34.6581 159.776 34.1364 160.06 33.6548C160.306 32.8322 160.733 32.0496 161.339 31.3072C161.642 30.926 161.946 30.6852 162.249 30.5849C163.234 30.0231 164.21 29.7422 165.177 29.7422L166.456 29.7121H166.626C167.347 29.7121 167.858 29.8224 168.161 30.0432H168.332C168.427 30.0432 168.474 30.003 168.474 29.9228C168.266 28.9797 167.925 28.0768 167.451 27.214C167.034 26.4716 166.257 26.1004 165.12 26.1004L163.954 25.9198C162.95 26.1405 162.448 26.3613 162.448 26.582C162.05 27.1237 161.813 27.7959 161.737 28.5985C161.699 28.6988 161.358 28.749 160.714 28.749L160.543 28.8092C160.468 28.8092 160.373 28.9797 160.259 29.3208C159.728 29.2406 159.463 29.1202 159.463 28.9597C159.501 28.8393 159.567 28.1169 159.662 26.7926C159.965 25.8697 160.685 25.0169 161.823 24.2344C162.353 23.9133 162.675 23.7528 162.789 23.7528ZM165.973 24.2645L165.916 24.3548L166.001 24.4752H166.172L166.2 24.415L166.115 24.2645H165.973ZM168.133 24.5053H168.076V24.5654C168.228 24.726 168.36 24.8062 168.474 24.8062H168.503V24.746C168.351 24.5855 168.228 24.5053 168.133 24.5053ZM163.585 24.6557V24.746C163.604 24.8062 163.699 24.8363 163.869 24.8363C164.04 24.8363 164.277 24.7761 164.58 24.6557V24.5353H164.466C164.049 24.5353 163.755 24.5755 163.585 24.6557ZM161.027 25.6189V25.679H161.055C161.226 25.679 161.481 25.4884 161.823 25.1072V25.0169H161.794C161.605 25.0169 161.349 25.2176 161.027 25.6189ZM164.978 25.4082L164.836 25.5286L164.921 25.679H165.29L165.376 25.5888L165.205 25.4082H164.978ZM160.799 27.8461L160.714 27.9062V28.3577H160.742C160.818 28.3376 160.856 28.2674 160.856 28.147V27.9062L160.799 27.8461ZM171.118 30.2538H171.089V30.314C171.127 30.4746 171.165 30.5548 171.203 30.5548L171.231 30.4043C171.194 30.304 171.156 30.2538 171.118 30.2538ZM170.464 31.3072L170.379 31.3674V31.4577C170.454 31.7587 170.53 31.9092 170.606 31.9092H170.663C170.663 31.6484 170.606 31.4477 170.492 31.3072H170.464ZM162.135 31.4878L161.823 31.6383V31.7888H161.879C162.012 31.7888 162.107 31.7085 162.164 31.548V31.4878H162.135ZM161.823 34.3471C161.955 35.551 162.116 36.1529 162.306 36.1529L162.59 36.5442V36.5743L162.334 36.5442V36.6345C162.694 37.1562 163.433 37.6377 164.551 38.0791C164.684 38.1594 164.874 38.2196 165.12 38.2597C165.461 38.2597 166.769 37.6678 169.043 36.484C169.194 36.3837 169.27 36.2733 169.27 36.1529V36.0024C169.1 35.1798 168.957 34.2167 168.844 33.1131L168.787 33.083C168.787 32.8623 168.578 32.6817 168.161 32.5412C166.759 32.1199 165.802 31.9092 165.29 31.9092C163.85 32.2503 162.865 32.762 162.334 33.4442C161.993 33.8053 161.823 34.1063 161.823 34.3471ZM170.379 32.3908L170.293 32.3306V32.4208H170.379V32.3908ZM170.492 32.9626H170.322V33.083L170.407 33.1733L170.492 33.083V32.9626ZM169.583 33.715L169.497 33.8053L169.583 33.9257L169.696 33.8956V33.8053L169.611 33.715H169.583ZM170.606 33.8053H170.521V33.8354C170.559 34.5979 170.635 34.9791 170.748 34.9791L170.805 34.9189V34.8587C170.805 34.4374 170.739 34.0862 170.606 33.8053ZM169.497 34.7684L169.469 34.7985V34.9791L169.554 35.0995H169.583L169.696 34.9791V34.7985L169.611 34.7684H169.497ZM171.914 37.5976H171.828V37.7782C171.904 38.039 171.989 38.1694 172.084 38.1694H172.17V38.0791C172.094 37.7581 172.008 37.5976 171.914 37.5976ZM161.453 37.6879L161.396 37.7481V37.7782L161.453 37.8384H161.595V37.7782L161.51 37.6879H161.453ZM171.032 38.0791L170.947 38.1694C171.004 38.3099 171.08 38.4002 171.175 38.4403H171.203L171.317 38.3199V38.2597L171.175 38.0791H171.032ZM166.911 38.5005V38.5607H167.024C167.29 38.5607 167.64 38.4403 168.076 38.1995V38.1694H167.963C167.318 38.2497 166.968 38.3601 166.911 38.5005ZM171.658 38.5908L171.601 38.7112V38.7714L171.715 38.8918H171.828L171.914 38.8316V38.7714L171.772 38.5908H171.658ZM164.637 38.8316L164.551 38.9219C164.589 39.0222 164.665 39.0724 164.779 39.0724C164.987 39.0322 165.091 38.9821 165.091 38.9219V38.8918L165.006 38.8316H164.637ZM161.538 39.2529L161.453 39.3733C161.529 39.5539 162.003 39.7847 162.874 40.0656C163.159 40.206 163.538 40.2763 164.011 40.2763V40.2462C164.011 40.186 163.651 40.0756 162.931 39.9151C162.514 39.7947 162.078 39.574 161.624 39.2529H161.538Z" fill="#fefefe"/>
<path d="M175.609 17.5829L176.035 17.4625L177.229 17.7935L179.077 17.7033C179.551 17.7033 179.788 17.8537 179.788 18.1547C179.674 18.9172 179.617 19.9305 179.617 21.1945V25.9198L179.589 30.4645L179.617 31.6684L179.475 37.3869C180.119 37.5675 181.095 37.6979 182.403 37.7782L182.431 37.8083V38.2296C182.431 38.33 182.535 38.4905 182.744 38.7112C182.535 39.1927 182.299 39.9051 182.033 40.8481L181.777 41.0588H181.692C181.578 40.8782 181.342 40.7879 180.982 40.7879L176.32 40.1258C174.917 40.1258 174.216 40.0355 174.216 39.8549C174.444 39.3733 174.614 38.5908 174.728 37.5073H174.756V37.4772L175.041 37.5073H175.325C175.42 37.4471 175.694 37.3668 176.149 37.2665C176.339 37.3668 176.481 37.417 176.576 37.417H176.917C177.106 37.417 177.201 37.2164 177.201 36.8151C177.239 36.3335 177.334 34.1364 177.485 30.2237C177.352 29.0199 177.239 25.7091 177.144 20.2916C177.068 20.1512 176.973 20.0809 176.86 20.0809L175.581 20.1712C175.353 20.1512 175.24 20.0709 175.24 19.9305C175.315 18.3654 175.438 17.5829 175.609 17.5829ZM175.893 18.1547L175.723 18.2149V18.2751C175.723 18.4557 175.818 18.546 176.007 18.546H176.092C176.301 18.546 176.509 18.4356 176.718 18.2149V18.1547H175.893ZM177.343 18.1547L177.286 18.245L177.514 18.3052H177.798L177.912 18.2149V18.1547H177.343ZM178.253 19.3285V19.3586L178.338 19.4489H178.452C178.622 19.3285 178.831 19.2081 179.077 19.0877C179.172 18.9272 179.219 18.8068 179.219 18.7266L179.162 18.6664H179.077C178.906 18.6664 178.736 18.7767 178.565 18.9974C178.357 19.0576 178.253 19.168 178.253 19.3285ZM175.751 18.847L175.609 18.9974V19.2081L175.723 19.3285H176.49V19.2081L175.979 18.9673L175.808 18.847H175.751ZM177.968 21.2848L177.912 21.3751V21.4955L177.968 21.5858H178.025L178.054 21.4955V21.3751L178.025 21.2848H177.968ZM177.912 22.9703L177.826 23.0606V23.1208H177.968V22.9703H177.912ZM179.162 25.047H179.077V25.0771L179.191 25.2276H179.219V25.1373L179.162 25.047ZM179.219 25.5888L179.105 25.4985L179.077 26.1004V26.4616H179.105C179.181 26.4616 179.219 26.3211 179.219 26.0402V25.5888ZM177.741 26.281V26.4014L177.798 26.4616L177.855 26.4014V26.2509L177.826 26.1907C177.826 26.1706 177.902 26.1104 178.054 26.0101V25.9198H177.94C177.807 26.0001 177.741 26.1205 177.741 26.281ZM179.191 26.6723H179.077V26.913H179.105L179.191 26.8528V26.6723ZM178.139 30.1034V30.1936H178.196C178.291 30.1936 178.338 29.7823 178.338 28.9597C178.3 28.9597 178.234 29.3409 178.139 30.1034ZM178.793 31.5179L178.736 31.5781L178.679 33.4743V36.0024L178.736 37.1762L178.764 37.2063H178.963C179.039 37.2063 179.077 37.116 179.077 36.9354C179.058 33.3238 178.963 31.5179 178.793 31.5179ZM177.627 36.0024V36.1228C177.627 36.2633 177.665 36.3335 177.741 36.3335L177.855 36.1529V35.9422C177.817 35.7015 177.779 35.5811 177.741 35.5811C177.665 35.5811 177.627 35.7215 177.627 36.0024ZM175.922 37.9588L175.865 38.0491C175.865 38.2096 175.931 38.2898 176.064 38.2898H176.092V38.0491L176.007 37.9588H175.922ZM181.522 37.9588L181.351 37.9889V38.0491C181.37 38.1694 181.531 38.2296 181.834 38.2296L181.976 38.1092V37.9889L181.806 37.9588H181.522ZM175.097 38.0491L175.041 38.1393V38.2296L175.154 38.2898L175.211 38.1694L175.183 38.0491H175.097ZM176.49 38.3801V38.4102L176.632 38.4403H176.803L176.917 38.3801V38.2898H176.689C176.557 38.2898 176.49 38.3199 176.49 38.3801ZM181.635 38.8617L180.015 38.8015V38.8316C180.015 38.952 180.337 39.0222 180.982 39.0423H181.721L181.92 38.9821V38.8918L181.635 38.8617ZM176.291 38.8918L176.206 39.0423L176.263 39.1326H176.689C176.992 39.1326 177.144 39.1025 177.144 39.0423V38.9821C176.936 38.9219 176.67 38.8918 176.348 38.8918H176.291ZM180.726 39.6442L180.839 39.6743H181.408C181.578 39.6743 181.673 39.6442 181.692 39.584V39.4937L181.522 39.4636H181.095C180.849 39.4837 180.726 39.5439 180.726 39.6442ZM174.756 39.4937L174.671 39.6442L174.756 39.6743H174.898L174.984 39.6442L174.87 39.4937H174.756ZM181.379 40.2161V40.3364L181.55 40.3966H181.635L181.806 40.3364V40.2161H181.379Z" fill="#fefefe"/>
<path d="M184.592 17.5829L185.018 17.4625L186.212 17.7935L188.06 17.7033C188.533 17.7033 188.77 17.8537 188.77 18.1547C188.657 18.9172 188.6 19.9305 188.6 21.1945V25.9198L188.571 30.4645L188.6 31.6684L188.458 37.3869C189.102 37.5675 190.078 37.6979 191.385 37.7782L191.414 37.8083V38.2296C191.414 38.33 191.518 38.4905 191.726 38.7112C191.518 39.1927 191.281 39.9051 191.016 40.8481L190.76 41.0588H190.675C190.561 40.8782 190.324 40.7879 189.964 40.7879L185.302 40.1258C183.9 40.1258 183.199 40.0355 183.199 39.8549C183.426 39.3733 183.597 38.5908 183.71 37.5073H183.739V37.4772L184.023 37.5073H184.307C184.402 37.4471 184.677 37.3668 185.132 37.2665C185.321 37.3668 185.463 37.417 185.558 37.417H185.899C186.089 37.417 186.183 37.2164 186.183 36.8151C186.221 36.3335 186.316 34.1364 186.468 30.2237C186.335 29.0199 186.221 25.7091 186.127 20.2916C186.051 20.1512 185.956 20.0809 185.842 20.0809L184.563 20.1712C184.336 20.1512 184.222 20.0709 184.222 19.9305C184.298 18.3654 184.421 17.5829 184.592 17.5829ZM184.876 18.1547L184.705 18.2149V18.2751C184.705 18.4557 184.8 18.546 184.99 18.546H185.075C185.283 18.546 185.492 18.4356 185.7 18.2149V18.1547H184.876ZM186.326 18.1547L186.269 18.245L186.496 18.3052H186.78L186.894 18.2149V18.1547H186.326ZM187.235 19.3285V19.3586L187.32 19.4489H187.434C187.605 19.3285 187.813 19.2081 188.06 19.0877C188.154 18.9272 188.202 18.8068 188.202 18.7266L188.145 18.6664H188.06C187.889 18.6664 187.718 18.7767 187.548 18.9974C187.339 19.0576 187.235 19.168 187.235 19.3285ZM184.734 18.847L184.592 18.9974V19.2081L184.705 19.3285H185.473V19.2081L184.961 18.9673L184.791 18.847H184.734ZM186.951 21.2848L186.894 21.3751V21.4955L186.951 21.5858H187.008L187.036 21.4955V21.3751L187.008 21.2848H186.951ZM186.894 22.9703L186.809 23.0606V23.1208H186.951V22.9703H186.894ZM188.145 25.047H188.06V25.0771L188.173 25.2276H188.202V25.1373L188.145 25.047ZM188.202 25.5888L188.088 25.4985L188.06 26.1004V26.4616H188.088C188.164 26.4616 188.202 26.3211 188.202 26.0402V25.5888ZM186.724 26.281V26.4014L186.78 26.4616L186.837 26.4014V26.2509L186.809 26.1907C186.809 26.1706 186.885 26.1104 187.036 26.0101V25.9198H186.923C186.79 26.0001 186.724 26.1205 186.724 26.281ZM188.173 26.6723H188.06V26.913H188.088L188.173 26.8528V26.6723ZM187.122 30.1034V30.1936H187.178C187.273 30.1936 187.32 29.7823 187.32 28.9597C187.283 28.9597 187.216 29.3409 187.122 30.1034ZM187.775 31.5179L187.718 31.5781L187.662 33.4743V36.0024L187.718 37.1762L187.747 37.2063H187.946C188.022 37.2063 188.06 37.116 188.06 36.9354C188.041 33.3238 187.946 31.5179 187.775 31.5179ZM186.61 36.0024V36.1228C186.61 36.2633 186.648 36.3335 186.724 36.3335L186.837 36.1529V35.9422C186.799 35.7015 186.761 35.5811 186.724 35.5811C186.648 35.5811 186.61 35.7215 186.61 36.0024ZM184.904 37.9588L184.847 38.0491C184.847 38.2096 184.914 38.2898 185.046 38.2898H185.075V38.0491L184.99 37.9588H184.904ZM190.504 37.9588L190.334 37.9889V38.0491C190.353 38.1694 190.514 38.2296 190.817 38.2296L190.959 38.1092V37.9889L190.788 37.9588H190.504ZM184.08 38.0491L184.023 38.1393V38.2296L184.137 38.2898L184.194 38.1694L184.165 38.0491H184.08ZM185.473 38.3801V38.4102L185.615 38.4403H185.785L185.899 38.3801V38.2898H185.672C185.539 38.2898 185.473 38.3199 185.473 38.3801ZM190.618 38.8617L188.998 38.8015V38.8316C188.998 38.952 189.32 39.0222 189.964 39.0423H190.703L190.902 38.9821V38.8918L190.618 38.8617ZM185.274 38.8918L185.189 39.0423L185.245 39.1326H185.672C185.975 39.1326 186.127 39.1025 186.127 39.0423V38.9821C185.918 38.9219 185.653 38.8918 185.331 38.8918H185.274ZM189.708 39.6442L189.822 39.6743H190.39C190.561 39.6743 190.656 39.6442 190.675 39.584V39.4937L190.504 39.4636H190.078C189.831 39.4837 189.708 39.5439 189.708 39.6442ZM183.739 39.4937L183.654 39.6442L183.739 39.6743H183.881L183.966 39.6442L183.853 39.4937H183.739ZM190.362 40.2161V40.3364L190.533 40.3966H190.618L190.788 40.3364V40.2161H190.362Z" fill="#fefefe"/>
<path d="M199.345 24.9567C200.141 24.9567 201.107 25.3179 202.244 26.0402C203.211 26.8027 203.694 27.3244 203.694 27.6053C204.452 29.2907 204.831 30.304 204.831 30.6451L204.859 30.8859C204.575 31.5882 204.433 32.0697 204.433 32.3306L204.262 32.3607H201.846C201.619 32.3607 201.344 32.3908 201.022 32.4509C198.293 32.2102 196.379 32.0898 195.28 32.0898H194.683C194.455 32.4509 194.342 32.7118 194.342 32.8723C194.474 33.093 194.541 33.4442 194.541 33.9257C194.541 34.6882 194.654 35.1396 194.882 35.2801L194.91 35.4306V35.4607L194.74 35.3704V35.4607L194.995 35.7617C194.995 36.0225 195.166 36.3536 195.507 36.7549C196.132 37.9186 196.815 38.641 197.554 38.9219C198.179 39.1426 198.89 39.2529 199.686 39.2529C199.818 39.2529 200.093 39.1225 200.51 38.8617C200.851 38.7814 201.571 38.1293 202.67 36.9054V36.8151C202.67 36.7749 202.538 36.7348 202.272 36.6947L202.216 36.5442C202.651 35.6613 203.173 35.0794 203.779 34.7985C203.95 34.9791 204.3 35.26 204.831 35.6413C205.248 36.3235 205.807 37.1261 206.508 38.0491V38.1694C205.902 39.0122 205.466 39.4335 205.2 39.4335H205.087C205.087 38.9921 204.831 38.7413 204.319 38.6811C204.224 38.6811 203.807 39.0122 203.068 39.6743C202.633 40.0355 201.884 40.3766 200.823 40.6976C199.591 40.9585 198.719 41.0889 198.208 41.0889L196.587 40.4869C195.678 40.4869 194.844 39.9652 194.086 38.9219C193.764 38.5607 193.498 38.1293 193.29 37.6277C193.29 37.4672 193.081 36.6345 192.665 35.1296C192.532 34.5477 192.466 33.9859 192.466 33.4442V33.4141C192.466 30.7454 193.224 28.4079 194.74 26.4014C194.929 25.8998 195.365 25.5286 196.047 25.2878C196.502 25.1473 197.052 25.037 197.696 24.9567C197.866 24.8765 198.416 24.8765 199.345 24.9567ZM196.729 25.5888V25.6189H196.786C197.089 25.6189 197.658 25.5085 198.492 25.2878C198.662 25.2677 198.748 25.2176 198.748 25.1373L198.662 25.047H198.634C198.084 25.047 197.469 25.2075 196.786 25.5286L196.729 25.5888ZM195.592 26.1004V26.1305L195.678 26.1907H195.706C196.085 26.0904 196.275 25.9901 196.275 25.8897V25.7091L196.161 25.5888H196.104C195.763 25.7091 195.592 25.8797 195.592 26.1004ZM199.97 25.7994H199.117V25.8596C199.117 25.9399 199.506 26.0001 200.283 26.0402H200.311V25.9198C200.311 25.8797 200.197 25.8396 199.97 25.7994ZM197.952 26.2509V26.281C197.952 26.3613 198.34 26.4616 199.117 26.582L199.174 26.5519V26.4315C199.022 26.2108 198.767 26.1004 198.407 26.1004H198.321C198.075 26.1205 197.952 26.1706 197.952 26.2509ZM199.686 26.4315V26.4616C200.766 27.1237 201.344 27.4548 201.42 27.4548H201.448L201.732 27.3344L201.903 27.3946L201.931 27.3344V27.3043C201.856 27.2441 201.694 27.1839 201.448 27.1237L200.88 26.8528C200.728 26.5117 200.425 26.3412 199.97 26.3412H199.885C199.752 26.3613 199.686 26.3913 199.686 26.4315ZM196.303 27.3043C196.493 27.1438 196.872 26.9732 197.44 26.7926V26.7325L197.412 26.6723H197.127C196.578 26.8328 196.303 27.0435 196.303 27.3043ZM194.796 29.2907V29.381C194.796 29.6017 196.521 29.8525 199.97 30.1335L200.254 30.2237L200.624 30.1936C201.382 30.4545 201.893 30.5849 202.159 30.5849C202.159 30.6451 202.216 30.6953 202.329 30.7354C202.443 30.5548 202.5 30.3843 202.5 30.2237V29.6519C202.5 29.3911 202.026 28.8092 201.079 27.9062C200.643 27.4448 200.15 27.1839 199.6 27.1237L198.634 26.9431C197.061 27.2842 196.028 27.6956 195.536 28.1771C195.327 28.5985 195.081 28.9697 194.796 29.2907ZM195.109 27.4849V27.5451H195.166C195.412 27.4849 195.536 27.4147 195.536 27.3344V27.3043H195.393C195.299 27.3043 195.204 27.3645 195.109 27.4849ZM201.903 27.9062C201.941 28.0668 202.026 28.147 202.159 28.147H202.216L202.272 28.0567V27.8762L202.159 27.7257C201.988 27.7257 201.903 27.7859 201.903 27.9062ZM194.569 28.0567L194.512 28.147V28.1771H194.569L194.683 28.0868V28.0567H194.569ZM202.614 28.2975H202.5C202.708 28.9597 202.86 29.3208 202.955 29.381H203.068L203.154 29.3208C203.002 28.6787 202.841 28.3577 202.67 28.3577L202.614 28.2975ZM194.825 28.8393C194.939 28.8192 194.995 28.7389 194.995 28.5985V28.5684C194.882 28.6085 194.825 28.6988 194.825 28.8393ZM203.58 29.6519L203.495 29.7121V29.9228L203.58 30.0432C203.656 30.0231 203.694 29.9529 203.694 29.8325V29.7121L203.665 29.6519H203.58ZM194.512 30.0733V30.1936L194.569 30.2538H194.626C194.759 30.1936 194.872 30.0833 194.967 29.9228V29.8325H194.825C194.711 29.8325 194.607 29.9127 194.512 30.0733ZM193.347 29.8927C193.195 30.0532 193.063 30.4545 192.949 31.0966H193.006C193.119 31.0966 193.29 30.7454 193.517 30.0432C193.479 29.9428 193.423 29.8927 193.347 29.8927ZM196.246 30.2538V30.3441C196.606 30.605 197.26 30.7354 198.208 30.7354H198.463L198.833 30.7053V30.5849C198.056 30.4043 197.194 30.294 196.246 30.2538ZM201.448 31.0364H201.363V31.1267H201.448V31.0364ZM195.962 31.2772V31.3373C196.341 31.4377 197.345 31.538 198.975 31.6383V31.6985L198.378 31.7888C198.378 31.849 198.624 31.8791 199.117 31.8791C199.913 31.8791 200.311 31.839 200.311 31.7587C200.311 31.5581 198.861 31.3975 195.962 31.2772ZM193.091 31.4878H192.949V31.6684C192.949 31.7888 192.977 31.849 193.034 31.849C193.129 31.849 193.186 31.7487 193.205 31.548L193.091 31.4878ZM195.393 31.548L195.251 31.5781V31.7587H195.393V31.548ZM194.484 31.7888V31.8189H194.512L194.995 31.7587V31.6985L194.91 31.5781H194.825C194.654 31.5781 194.541 31.6484 194.484 31.7888ZM201.391 31.849C201.391 31.9293 201.562 31.9694 201.903 31.9694L202.159 31.9393V31.8791C202.159 31.7988 201.979 31.7587 201.619 31.7587C201.467 31.7988 201.391 31.8289 201.391 31.849ZM192.949 32.6315V32.7519C192.93 32.8121 192.92 32.9526 192.92 33.1733V33.2937C192.92 33.6548 193.015 33.9759 193.205 34.2568H193.233C193.233 33.2937 193.138 32.7519 192.949 32.6315ZM193.46 35.25H193.375V35.3102L193.46 35.3704H193.517V35.3102L193.46 35.25ZM193.659 35.7617L193.631 35.7918V35.8519C193.707 36.173 193.821 36.3335 193.972 36.3335V36.2432C193.972 36.0827 193.868 35.9222 193.659 35.7617ZM202.926 36.0325L202.983 36.1228H203.125C203.239 36.1228 203.305 36.0827 203.324 36.0024L203.211 35.882H203.182C203.049 35.882 202.964 35.9322 202.926 36.0325ZM202.272 37.7782L202.329 37.8083H202.358C202.566 37.8083 202.699 37.6779 202.756 37.417V37.3568C202.547 37.3568 202.386 37.4973 202.272 37.7782ZM204.262 37.718L204.291 37.7481H204.376C204.49 37.6678 204.547 37.5575 204.547 37.417H204.461C204.329 37.4973 204.262 37.5976 204.262 37.718ZM205.257 37.417H205.229V37.4772C205.286 37.718 205.371 37.8384 205.485 37.8384H205.513L205.57 37.7782V37.7481C205.532 37.5274 205.428 37.417 205.257 37.417ZM203.608 38.0491L203.694 38.1092C203.978 38.0089 204.12 37.8785 204.12 37.718V37.6578H204.092C203.826 37.6578 203.665 37.7882 203.608 38.0491ZM201.391 38.7112H201.448C201.6 38.651 201.685 38.5507 201.704 38.4102L201.676 38.3801C201.486 38.5005 201.391 38.6109 201.391 38.7112ZM203.068 38.8617H203.182C203.372 38.6811 203.466 38.5507 203.466 38.4704H203.438C203.192 38.5507 203.068 38.6811 203.068 38.8617ZM194.995 39.1326H194.91V39.2529C194.948 39.3533 195.109 39.4636 195.393 39.584L195.507 39.6743C195.299 39.3332 195.128 39.1526 194.995 39.1326ZM196.985 39.2529H196.957V39.283C196.957 39.3633 197.156 39.4536 197.554 39.5539L197.582 39.5238V39.4636C197.336 39.3232 197.137 39.2529 196.985 39.2529ZM198.662 39.584H198.577V39.6743H198.662V39.584ZM201.619 40.0355C201.808 40.0355 201.96 39.885 202.073 39.584H201.988C201.742 39.7245 201.619 39.875 201.619 40.0355ZM199.629 40.3364L199.032 40.2763H198.918C198.748 40.2763 198.653 40.3164 198.634 40.3966V40.4568L198.748 40.5471H199.259C199.847 40.5471 200.538 40.4368 201.334 40.2161C201.297 40.0957 201.183 40.0355 200.993 40.0355H200.851C200.396 40.0355 199.989 40.1358 199.629 40.3364Z" fill="#fefefe"/>
<path d="M212.619 22.0373L213.046 21.9169C213.539 21.9169 214.95 22.2179 217.281 22.8198C218.38 23.3616 219.015 23.6324 219.186 23.6324C219.337 23.4117 219.413 23.1308 219.413 22.7897V22.5188C219.413 22.258 219.584 22.1276 219.925 22.1276C220.152 21.947 220.474 21.8567 220.891 21.8567C221.46 21.8567 221.744 21.9269 221.744 22.0674L222 24.8965V25.7693C222 26.4917 221.905 26.9231 221.716 27.0635C221.545 27.2441 221.413 27.3344 221.318 27.3344C220.257 27.2341 219.726 27.0836 219.726 26.8829C219.593 26.4014 219.262 26.0502 218.731 25.8295C216.912 24.8664 215.604 24.3849 214.808 24.3849L214.012 24.3247C213.065 24.3247 212.506 24.5153 212.335 24.8965C212.108 25.2176 211.994 25.6489 211.994 26.1907V26.2208C211.994 27.3244 212.534 28.2373 213.614 28.9597C214.695 29.4211 215.633 29.6519 216.429 29.6519C216.429 29.8124 216.855 30.0331 217.708 30.314C217.878 30.615 218.248 30.7655 218.816 30.7655C219.404 31.0063 220.247 31.7687 221.346 33.0529L221.46 33.1733V33.2937C221.46 33.3338 221.403 33.3539 221.289 33.3539V33.4141C221.555 34.016 221.687 34.3671 221.687 34.4675C221.687 36.2733 221.413 37.407 220.863 37.8685C220.617 38.4102 220.095 38.9419 219.3 39.4636C218.409 40.3264 217.499 40.7578 216.571 40.7578H215.576C214.079 40.517 213.33 40.3164 213.33 40.1559C212.458 39.5138 211.956 39.1927 211.824 39.1927C210.895 38.7313 210.251 38.2497 209.891 37.7481H209.777C209.549 38.4503 209.36 38.8015 209.208 38.8015C208.014 38.6008 207.418 38.3801 207.418 38.1393C207.304 37.7982 207.238 36.9254 207.219 35.5209L207.503 33.6548C207.503 32.9726 207.579 32.6315 207.73 32.6315L209.549 32.4208C209.682 32.4208 209.815 32.9726 209.947 34.0762L210.743 35.6112C210.743 35.6714 211.587 36.2733 213.273 37.417C213.69 37.9186 214.287 38.1694 215.064 38.1694H216.059C217.063 38.1694 217.746 37.8283 218.106 37.1461C218.542 36.6445 218.864 35.9121 219.072 34.949V34.8587C219.072 34.2769 218.589 33.5445 217.622 32.6616C217.206 32.16 216.675 31.9092 216.031 31.9092C215.652 31.7286 214.799 31.538 213.472 31.3373L211.198 30.1034L210.09 29.1101C209.616 28.3477 209.36 27.8059 209.322 27.4849L209.379 26.9732L209.265 25.8295C209.265 25.5486 209.426 25.2176 209.748 24.8363C209.748 24.5955 210.203 24.0438 211.113 23.181C211.966 22.6994 212.468 22.3182 212.619 22.0373ZM212.904 22.3382V22.4586C212.904 22.5389 213.027 22.6091 213.273 22.6693C213.785 22.6292 214.041 22.559 214.041 22.4586V22.3382C214.041 22.1978 213.775 22.1276 213.245 22.1276C213.093 22.1276 212.98 22.1978 212.904 22.3382ZM220.323 22.278V22.3382C220.531 22.6994 220.711 22.88 220.863 22.88C221.015 22.88 221.128 22.7797 221.204 22.579V22.4586C221.204 22.3382 220.91 22.278 220.323 22.278ZM221.318 23.2111L221.232 23.3315L221.318 23.3916H221.46V23.2111H221.318ZM213.7 23.6625C213.775 23.7428 213.87 23.7829 213.984 23.7829C214.173 23.7829 214.372 23.6726 214.581 23.4518L214.439 23.3315H214.126C213.842 23.3315 213.7 23.4418 213.7 23.6625ZM217.566 23.6324V23.6625C217.566 23.7227 217.679 23.7628 217.907 23.7829H217.992V23.7528C217.992 23.7127 217.85 23.6726 217.566 23.6324ZM215.007 24.0237L214.894 24.1441C214.894 24.2845 215.235 24.3748 215.917 24.415V24.3247C215.917 24.2444 215.633 24.1441 215.064 24.0237H215.007ZM211.028 24.9567V24.9868L211.084 25.0169H211.198C211.615 24.6959 211.824 24.435 211.824 24.2344H211.738C211.53 24.2344 211.293 24.4752 211.028 24.9567ZM219.356 24.4451L219.3 24.5053C219.565 24.726 219.868 24.8765 220.209 24.9567L220.238 24.8965V24.8363C220.238 24.736 219.963 24.6056 219.413 24.4451H219.356ZM210.914 24.5053L210.829 24.5353L210.857 24.5955V24.6256L210.971 24.5955V24.5053H210.914ZM217.907 24.746L217.878 24.7761V24.8363C218.466 25.1975 218.835 25.3781 218.987 25.3781V25.348C218.987 25.2276 218.627 25.0269 217.907 24.746ZM210.118 24.8363H209.976L209.947 25.047V25.1373L209.976 25.1975L210.118 24.8965V24.8363ZM209.834 25.5587L209.748 25.5888C209.786 25.97 209.834 26.2409 209.891 26.4014H209.976V26.3713L209.947 25.5587H209.834ZM210.601 25.8295L210.488 25.9198V26.0101H210.573L210.715 25.8897V25.8295H210.601ZM220.124 26.6121L220.01 26.6723C220.162 26.7726 220.437 26.8227 220.835 26.8227L221.403 26.7926V26.6723C221.062 26.6321 220.711 26.6121 220.351 26.6121H220.124ZM211.795 28.2975L211.738 28.3276V28.3878L211.795 28.4781H212.079V28.3878C212.06 28.3276 211.966 28.2975 211.795 28.2975ZM210.488 28.3878L210.431 28.4781V28.5082L210.488 28.5684H210.573V28.4781L210.488 28.3878ZM210.999 28.5684H210.971V28.6286C211.103 29.07 211.236 29.2907 211.369 29.2907H211.482L211.625 29.1402V29.1101C211.378 28.749 211.17 28.5684 210.999 28.5684ZM212.42 28.5684L212.364 28.6286V28.8092L212.534 28.9898H212.619L212.705 28.9296V28.7791C212.629 28.6386 212.534 28.5684 212.42 28.5684ZM213.33 29.2907L213.273 29.3509V29.381C213.52 29.6218 213.889 29.8325 214.382 30.0131L214.439 29.9228C214.439 29.8024 214.069 29.5917 213.33 29.2907ZM214.894 30.0432C214.894 30.1234 215.566 30.3341 216.912 30.6752L217.281 30.7053H217.367V30.6752C216.798 30.2137 216.106 29.9428 215.291 29.8626C215.026 29.9629 214.894 30.0231 214.894 30.0432ZM212.449 30.1635H212.42C212.42 30.304 212.544 30.4144 212.79 30.4946L212.847 30.4645C212.847 30.3642 212.714 30.2639 212.449 30.1635ZM215.235 30.916V31.0364L215.718 31.217H216.031V31.1267C215.689 30.9862 215.424 30.916 215.235 30.916ZM218.276 31.3373H218.02V31.4276C218.134 31.548 218.636 31.849 219.527 32.3306C219.906 32.6917 220.2 32.8723 220.408 32.8723H220.437L220.493 32.782C220.058 32.1801 219.318 31.6985 218.276 31.3373ZM218.987 33.1733H218.958V33.3238C218.958 33.5244 219.12 33.7652 219.442 34.0461H219.612V33.8053C219.612 33.5645 219.404 33.3539 218.987 33.1733ZM208.754 33.5946H208.611V33.715L208.668 33.7752L208.782 33.715L208.754 33.5946ZM207.645 36.0024L207.673 36.7549H207.702C207.834 36.6746 207.901 36.2031 207.901 35.3403V35.0995L207.844 35.0393H207.787C207.73 35.0393 207.683 35.3604 207.645 36.0024ZM219.499 35.5209H219.356V35.6714L219.442 35.7015L219.527 35.6112L219.499 35.5209ZM221.119 35.5209L220.891 35.7617V35.9121L220.948 36.0024H221.034C221.147 35.9824 221.204 35.8218 221.204 35.5209H221.119ZM209.862 36.5442H209.777V36.6646C210.061 37.0458 210.336 37.2364 210.601 37.2364H210.658V37.1461C210.241 36.7448 209.976 36.5442 209.862 36.5442ZM218.674 37.6277V37.7481H218.731C218.902 37.6277 219.044 37.4571 219.157 37.2364L219.101 37.1461C218.949 37.2465 218.807 37.407 218.674 37.6277ZM208.555 37.5675H208.412V37.6879L208.555 37.7782L208.668 37.7481V37.6879L208.555 37.5675ZM220.209 37.8986L219.243 38.7413V38.8015C219.243 38.8416 219.281 38.8617 219.356 38.8617C219.584 38.8617 219.896 38.5406 220.294 37.8986H220.209ZM213.444 39.2529L212.619 39.1927V39.2529C212.619 39.3332 212.866 39.4335 213.359 39.5539L213.472 39.6743H213.614C213.576 39.3934 213.52 39.2529 213.444 39.2529ZM214.382 39.6743L214.297 39.584V39.7044H214.382V39.6743ZM214.126 40.0054H214.069L214.183 40.1559H214.41V40.1258C214.391 40.0455 214.297 40.0054 214.126 40.0054ZM217.423 40.0054L217.367 40.0656V40.1559L217.423 40.2161H217.537C217.897 40.196 218.077 40.1458 218.077 40.0656L217.992 40.0054H217.423ZM214.695 40.186C214.96 40.3465 215.32 40.4267 215.775 40.4267H215.832L217.054 40.3665V40.3064C216.997 40.1458 216.343 40.0656 215.093 40.0656C214.827 40.0656 214.695 40.1057 214.695 40.186Z" fill="#fefefe"/>
<path d="M23.2864 1.46875C22.5899 1.46875 22.1637 1.21172 21.6751 0.908789C20.989 0.495703 20.1677 0 18.2965 0C15.1258 0 12.8907 4.01152 11.4353 8.20664C6.51812 9.00527 3.32663 10.2996 3.32663 11.75C3.32663 13.0627 5.92557 14.2377 10.0423 15.0455C10.0007 15.4127 9.9799 15.7799 9.9799 16.1562C9.9799 17.7168 10.323 19.2039 10.9467 20.5625H4.71966C3.95038 20.5625 3.32663 21.1133 3.32663 21.7926C3.32663 21.9486 3.35782 22.1047 3.43059 22.2516L7.46413 31.1467C2.9316 34.1301 0 38.9035 0 44.2736C0 45.7791 1.38263 47 3.08753 47H43.4853C45.1902 47 46.5729 45.7791 46.5729 44.2736C46.5729 38.9035 43.6413 34.1393 39.1191 31.1467L43.1423 22.2516C43.2047 22.1047 43.2462 21.9486 43.2462 21.7926C43.2462 21.1133 42.6225 20.5625 41.8532 20.5625H35.6262C36.2499 19.2039 36.593 17.7168 36.593 16.1562C36.593 15.7799 36.5722 15.4127 36.5306 15.0455C40.6473 14.2377 43.2462 13.0627 43.2462 11.75C43.2462 10.2996 40.0547 9.00527 35.1376 8.20664C33.6822 4.01152 31.4471 0 28.2764 0C26.4052 0 25.5839 0.495703 24.8978 0.908789C24.3988 1.21172 23.9829 1.46875 23.2864 1.46875ZM29.108 20.5625H27.819C26.1037 20.5625 24.5859 19.5895 24.0453 18.1574C23.8062 17.5148 22.777 17.5148 22.5379 18.1574C21.9974 19.5895 20.4692 20.5625 18.7643 20.5625H17.4648C15.1674 20.5625 13.3065 18.9193 13.3065 16.8906V15.5688C16.2381 15.9451 19.6479 16.1562 23.2864 16.1562C26.9249 16.1562 30.3347 15.9451 33.2663 15.5688V16.8906C33.2663 18.9193 31.4055 20.5625 29.108 20.5625ZM19.9598 29.375L21.6231 32.3125L18.2965 44.0625L13.3065 26.4375L19.9598 29.375ZM33.2663 26.4375L28.2764 44.0625L24.9498 32.3125L26.6131 29.375L33.2663 26.4375Z" fill="#fefefe"/>
</svg>
